# xmcd
#
# Track frame offsets:
# 182
# 28820
# 54132
# 72620
# 94482
# 121765
# 148505
# 169627
# 179505
# 203320
#
# Disc length: 2891 seconds
#
#
# Revision: 1
# Processed by: cddbd v1.5.1PL0 Copyright (c) Steve Scherf et al.
# Submitted via: FreeRIP 2.91 
#
DISCID=870b490a
DTITLE=Brown Charles - Jazz and Blues Collection - CD 53
DYEAR=1900
DGENRE=Blues
TTITLE0=Quicksand
TTITLE1=Saving My Love For You
TTITLE2=Seven Long Days
TTITLE3=Just The Way You Are
TTITLE4=Black Night
TTITLE5=So Long
TTITLE6=A Cottage For Sale
TTITLE7=Brown's Boogie
TTITLE8=Quicksand
TTITLE9=Times Getting Tough
EXTD=
EXTT0=
EXTT1=
EXTT2=
EXTT3=
EXTT4=
EXTT5=
EXTT6=
EXTT7=
EXTT8=
EXTT9=
PLAYORDER=
